<svg width="17" height="34" viewBox="0 0 17 34" fill="none" xmlns="http://www.w3.org/2000/svg">
<path d="M9.59283 30.6431L14.8495 26.425C15.2031 26.1412 15.7064 26.1412 16.06 26.425C16.5425 26.8121 16.5425 27.5464 16.06 27.9335L9.12586 33.4978C8.7602 33.7912 8.2398 33.7912 7.87414 33.4978L0.939986 27.9335C0.457536 27.5464 0.457536 26.8121 0.939986 26.425C1.29361 26.1412 1.7969 26.1412 2.15052 26.425L7.40717 30.6431L7.40717 0.999999C7.40717 0.447714 7.85489 0 8.40717 0L8.59283 0C9.14511 0 9.59283 0.447715 9.59283 1L9.59283 30.6431Z" fill="#89BCD9"/>
</svg>
